<?xml version="1.0" encoding="iso-8859-1"?>
<!-- Generator: Adobe Illustrator 19.0.0, SVG Export Plug-In . SVG Version: 6.00 Build 0)  -->
<svg version="1.1" id="Layer_1" xmlns="http://www.w3.org/2000/svg" xmlns:xlink="http://www.w3.org/1999/xlink" x="0px" y="0px"
	 viewBox="0 0 512.001 512.001" style="enable-background:new 0 0 512.001 512.001;" xml:space="preserve">
<path style="fill:#FCE45B;" d="M418.596,384.304c25.438-33.914,40.494-76.07,40.494-121.775c0-62.099-27.8-117.648-71.65-154.888
	c-35.404-30.071-81.281-48.199-131.437-48.199c-99.815,0-182.678,71.802-199.832,166.638v0.01
	c-2.139,11.822-3.254,23.998-3.254,36.438c0,15.461,1.724,30.527,4.998,44.995c6.377,28.287,18.665,54.333,35.485,76.77"/>
<path style="fill:#EACF4E;" d="M186.163,384.294c-16.82-22.437-29.108-48.483-35.485-76.77c-3.275-14.468-4.998-29.534-4.998-44.995
	c0-12.44,1.115-24.617,3.255-36.438v-0.01c14.411-79.672,75.201-143.079,153.454-161.322c-14.897-3.473-30.423-5.317-46.386-5.317
	c-99.815,0-182.678,71.802-199.832,166.638v0.01c-2.139,11.822-3.254,23.998-3.254,36.438c0,15.461,1.724,30.527,4.998,44.995
	c6.377,28.287,18.665,54.333,35.485,76.77l325.196,0.01c0.001-0.001,0.001-0.002,0.002-0.003L186.163,384.294z"/>
<path style="fill:#53C5F2;" d="M504.396,428.226c-31.052,0-31.052,24.333-62.103,24.333s-31.052-24.333-62.103-24.333
	c-31.051,0-31.051,24.333-62.1,24.333s-31.049-24.333-62.098-24.333c-31.047,0-31.047,24.333-62.095,24.333
	c-31.048,0-31.048-24.333-62.098-24.333s-31.05,24.333-62.099,24.333c-31.047,0-31.047-24.333-62.096-24.333v-61.499
	c31.047,0,31.047,24.333,62.096,24.333c31.049,0,31.049-24.333,62.099-24.333c31.048,0,31.048,24.333,62.098,24.333
	c31.047,0,31.047-24.333,62.095-24.333c31.049,0,31.049,24.333,62.098,24.333c31.051,0,31.051-24.333,62.1-24.333
	c31.052,0,31.052,24.333,62.103,24.333s31.052-24.333,62.103-24.333"/>
<path d="M7.604,374.331c12.899,0,18.839,4.655,26.357,10.547c8.245,6.461,17.59,13.785,35.739,13.785
	c18.149,0,27.495-7.324,35.74-13.785c7.52-5.893,13.458-10.547,26.358-10.547c12.9,0,18.84,4.655,26.358,10.547
	c8.246,6.461,17.59,13.785,35.74,13.785c18.148,0,27.493-7.324,35.739-13.785c7.519-5.893,13.458-10.547,26.357-10.547
	c12.9,0,18.84,4.655,26.358,10.547c8.246,6.461,17.591,13.785,35.74,13.785s27.495-7.323,35.74-13.785
	c7.52-5.894,13.459-10.547,26.36-10.547s18.841,4.655,26.361,10.547c8.246,6.461,17.592,13.785,35.742,13.785
	s27.496-7.323,35.742-13.785c7.52-5.893,13.46-10.547,26.361-10.547c4.199,0,7.604-3.405,7.604-7.604s-3.405-7.604-7.604-7.604
	c-18.15,0-27.496,7.323-35.742,13.785c-7.52,5.893-13.46,10.547-26.361,10.547c-5.005,0-8.955-0.707-12.364-1.908
	c24.081-35.082,36.765-76.037,36.765-119.018c0-62-27.092-120.566-74.33-160.683c-37.967-32.248-86.393-50.008-136.36-50.008
	c-102.006,0-189.194,72.71-207.314,172.889c-0.009,0.054-0.019,0.107-0.027,0.161c-2.221,12.333-3.349,24.996-3.349,37.641
	c0,15.767,1.745,31.47,5.185,46.667c5.875,26.063,16.5,50.352,31.59,72.341c-3.414,1.207-7.371,1.917-12.387,1.917
	c-12.899,0-18.839-4.655-26.357-10.547c-8.245-6.461-17.589-13.785-35.739-13.785c-4.199,0-7.604,3.405-7.604,7.604
	C0,370.925,3.405,374.331,7.604,374.331z M220.253,372.908c-7.519,5.893-13.458,10.547-26.357,10.547
	c-12.9,0-18.84-4.655-26.358-10.547c-7.841-6.145-16.694-13.056-33.15-13.72c-24.922-16.126-48.288-34.784-69.512-55.501
	c-2.878-13.432-4.355-27.263-4.355-41.159c0-7.508,0.432-15.02,1.278-22.454c29.638,22.628,60.993,43.364,93.382,61.726
	c1.184,0.671,2.472,0.991,3.743,0.991c2.648,0,5.222-1.386,6.622-3.855c2.071-3.654,0.789-8.294-2.865-10.365
	c-34.171-19.373-67.171-41.438-98.165-65.61c3.756-18.341,10.03-35.64,18.408-51.576l165.475,95.537v63.737
	c-20.008-8.395-39.83-17.667-59.043-27.624c-3.729-1.932-8.318-0.475-10.25,3.252c-1.932,3.729-0.475,8.318,3.252,10.25
	c21.457,11.119,43.661,21.388,66.04,30.573v12.496C235.08,361.323,227.258,367.418,220.253,372.908z M291.732,372.908
	c-7.002-5.487-14.819-11.578-28.125-13.297V266.92l55.13-31.829c6.367,48.933,8.212,98.626,5.514,147.949
	c-1.875,0.267-3.906,0.416-6.161,0.416C305.19,383.456,299.25,378.801,291.732,372.908z M344.449,372.908
	c-1.59,1.245-3.109,2.43-4.637,3.532c2.274-49.915-0.023-100.145-6.844-149.567l56.189-32.441
	c13.049,55.034,15.563,111.171,7.484,167.142c-4.596-1.503-9.952-2.453-16.452-2.453
	C362.04,359.123,352.695,366.447,344.449,372.908z M416.893,373.661c-0.319-0.249-0.638-0.498-0.962-0.752
	c-1.616-1.266-3.277-2.564-5.035-3.834c9.537-61.134,6.844-122.505-8.009-182.566l26.125-15.083
	c14.603,27.747,22.474,58.927,22.474,91.106C451.486,302.703,439.547,340.962,416.893,373.661z M421.404,158.255L256,253.751
	l-55.19-31.864c40.595-30.878,84.266-57.98,129.944-80.625c3.762-1.865,5.3-6.428,3.435-10.19c-1.865-3.762-6.429-5.301-10.19-3.435
	c-48.439,24.014-94.656,52.954-137.436,86.024l-56.213-32.454c52.383-49.177,116.311-85.304,185.5-104.786
	c20.284,6.509,39.462,16.308,56.692,29.095c-5.587,2.332-11.161,4.72-16.662,7.159c-3.839,1.702-5.571,6.194-3.869,10.033
	c1.258,2.838,4.039,4.524,6.955,4.524c1.03,0,2.076-0.211,3.078-0.655c7.88-3.494,15.904-6.888,23.915-10.136
	C399.825,128.783,411.711,142.877,421.404,158.255z M256.003,67.047c10.418,0,20.763,0.839,30.943,2.469
	c-63.441,21.791-121.812,57.3-170.327,103.765l-26.096-15.066C125.419,102.849,187.058,67.047,256.003,67.047z M73.226,332.081
	c12.47,10.88,25.531,21.104,39.094,30.59c-6.67,2.722-11.64,6.613-16.261,10.236c-0.318,0.249-0.63,0.493-0.943,0.737
	C86.098,360.624,78.781,346.727,73.226,332.081z"/>
<path d="M504.396,420.622c-18.15,0-27.496,7.323-35.742,13.785c-7.52,5.893-13.46,10.547-26.361,10.547
	c-12.9,0-18.841-4.655-26.36-10.547c-0.633-0.496-1.265-0.991-1.901-1.483c-3.321-2.57-8.098-1.961-10.667,1.362
	c-2.569,3.322-1.96,8.098,1.362,10.667c0.611,0.473,1.22,0.949,1.827,1.426c8.246,6.461,17.592,13.784,35.741,13.784
	c18.15,0,27.496-7.323,35.742-13.785c7.52-5.893,13.46-10.547,26.361-10.547c4.199,0,7.604-3.405,7.604-7.604
	C512.001,424.026,508.595,420.622,504.396,420.622z"/>
<path d="M380.19,420.622c-18.149,0-27.495,7.324-35.74,13.785c-7.52,5.894-13.459,10.547-26.36,10.547
	c-12.9,0-18.84-4.655-26.358-10.547c-8.246-6.461-17.59-13.785-35.74-13.785c-18.148,0-27.494,7.324-35.739,13.785
	c-7.519,5.893-13.458,10.547-26.357,10.547c-12.9,0-18.84-4.655-26.358-10.547c-8.246-6.461-17.591-13.785-35.74-13.785
	s-27.494,7.323-35.739,13.785c-7.52,5.894-13.459,10.547-26.359,10.547c-12.899,0-18.839-4.655-26.357-10.547
	c-8.246-6.461-17.59-13.785-35.739-13.785c-4.199,0-7.604,3.405-7.604,7.604c0,4.199,3.405,7.604,7.604,7.604
	c12.899,0,18.839,4.655,26.357,10.547c8.245,6.461,17.59,13.785,35.739,13.785c18.149,0,27.495-7.324,35.74-13.785
	c7.52-5.893,13.458-10.547,26.358-10.547c12.9,0,18.84,4.655,26.358,10.547c8.246,6.461,17.59,13.785,35.74,13.785
	c18.148,0,27.493-7.324,35.739-13.785c7.519-5.893,13.458-10.547,26.357-10.547c12.9,0,18.84,4.655,26.358,10.547
	c8.246,6.461,17.591,13.785,35.74,13.785s27.495-7.324,35.74-13.785c7.52-5.894,13.459-10.547,26.36-10.547
	c4.199,0,7.604-3.405,7.604-7.604C387.794,424.026,384.389,420.622,380.19,420.622z"/>
<g>
</g>
<g>
</g>
<g>
</g>
<g>
</g>
<g>
</g>
<g>
</g>
<g>
</g>
<g>
</g>
<g>
</g>
<g>
</g>
<g>
</g>
<g>
</g>
<g>
</g>
<g>
</g>
<g>
</g>
</svg>
